# xmcd
#
# Track frame offsets:
#	150
#	13715
#	30383
#	46497
#	72493
#	91587
#	123680
#	141684
#	166653
#	188035
#	215547
#	232211
#	255637
#	272339
#	297792
#	318980
#
# Disc length: 4563 seconds
#
# Revision: 0
# Processed by: cddbd v1.5.2PL0 Copyright (c) Steve Scherf et al.
# Submitted via: EasyCDDAExtractor 2010.4.0.0
#
DISCID=e811d110
DTITLE=Too Far Gone - Livat
DYEAR=2008
DGENRE=Country
TTITLE0=Lsk D Vilt
TTITLE1=Monsasfstn
TTITLE2=Et Håp
TTITLE3=Best I Test
TTITLE4=Frihelg
TTITLE5=Så Fin
TTITLE6=Treidagsfest Pa Ler
TTITLE7=Heiltidsjobb
TTITLE8=Sivert Hoinn
TTITLE9=Lokky
TTITLE10=Skiheisn
TTITLE11=Farlska Igjn
TTITLE12=Sjer Du M
TTITLE13=Zetorn
TTITLE14=Kainn Fa Lov
TTITLE15=De E Slutt (Studioversjon)
EXTD=
EXTT0=
EXTT1=
EXTT2=
EXTT3=
EXTT4=
EXTT5=
EXTT6=
EXTT7=
EXTT8=
EXTT9=
EXTT10=
EXTT11=
EXTT12=
EXTT13=
EXTT14=
EXTT15=
PLAYORDER=
